<?xml version="1.0" standalone="no"?>
<!DOCTYPE svg PUBLIC "-//W3C//DTD SVG 20010904//EN"
 "http://www.w3.org/TR/2001/REC-SVG-20010904/DTD/svg10.dtd">
<svg version="1.0" xmlns="http://www.w3.org/2000/svg"
 width="443.000000pt" height="261.000000pt" viewBox="0 0 443.000000 261.000000"
 preserveAspectRatio="xMidYMid meet">
<metadata>
Created by potrace 1.15, written by Peter Selinger 2001-2017
</metadata>
<g transform="translate(0.000000,261.000000) scale(0.100000,-0.100000)"
fill="#ffffff" stroke="none">
<path d="M1850 2140 l0 -450 50 0 c48 0 51 2 56 30 l6 29 40 -32 c34 -27 49
-32 109 -35 142 -8 231 57 273 198 20 67 20 188 1 260 -31 119 -107 180 -222
180 -71 0 -113 -14 -160 -54 l-33 -28 0 176 0 176 -60 0 -60 0 0 -450z m344
75 c50 -24 79 -84 84 -176 8 -135 -29 -224 -105 -255 -61 -26 -135 -14 -180
28 -22 21 -23 29 -23 178 l0 156 28 26 c61 57 133 73 196 43z"/>
<path d="M3030 2570 c-13 -13 -20 -33 -20 -60 0 -77 81 -110 137 -54 50 50 10
134 -63 134 -21 0 -42 -8 -54 -20z"/>
<path d="M3980 2140 l0 -450 55 0 55 0 0 450 0 450 -55 0 -55 0 0 -450z"/>
<path d="M587 2559 c-183 -63 -287 -218 -287 -429 0 -145 45 -256 142 -345 90
-83 142 -100 313 -99 149 0 183 8 272 60 l43 25 0 169 0 170 -136 0 -135 0 3
-42 3 -43 78 -3 77 -3 0 -93 0 -93 -44 -17 c-212 -81 -411 -2 -470 188 -25 79
-19 221 13 291 26 58 81 119 132 145 96 50 237 45 336 -11 29 -16 61 -29 72
-29 19 0 61 47 61 69 0 20 -83 71 -148 91 -89 28 -244 27 -325 -1z"/>
<path d="M1348 2305 c-21 -7 -58 -28 -83 -45 -45 -31 -45 -31 -30 -60 20 -39
47 -39 120 0 81 43 136 41 181 -4 31 -31 34 -39 34 -94 l0 -59 -82 -5 c-89 -6
-179 -33 -228 -68 -89 -63 -84 -205 10 -267 26 -18 47 -23 102 -23 74 0 122
15 174 55 39 30 44 31 44 6 0 -41 11 -51 57 -51 l45 0 -4 243 c-3 229 -4 244
-26 284 -12 24 -41 55 -64 70 -36 24 -53 28 -127 30 -55 2 -99 -3 -123 -12z
m222 -399 c0 -62 -1 -66 -36 -94 -42 -34 -111 -55 -152 -46 -60 15 -89 73 -62
125 16 28 80 57 151 67 107 16 99 20 99 -52z"/>
<path d="M2726 2297 c-21 -13 -51 -43 -67 -66 l-28 -42 -3 58 -3 58 -47 3 -48
3 0 -310 0 -311 55 0 55 0 0 189 c0 104 4 201 9 214 5 14 24 41 41 61 39 43
91 60 149 47 48 -10 56 -4 65 56 5 35 3 44 -13 53 -36 19 -123 12 -165 -13z"/>
<path d="M3466 2305 c-63 -22 -108 -66 -146 -140 -32 -64 -35 -75 -34 -159 2
-111 27 -186 82 -243 56 -57 103 -77 199 -81 100 -5 176 16 229 62 l36 31 -22
28 c-12 15 -27 27 -33 27 -7 0 -39 -14 -71 -30 -100 -51 -193 -38 -253 35 -30
36 -53 100 -53 144 0 21 5 21 215 21 l215 0 6 24 c14 57 -29 188 -78 233 -63
59 -199 81 -292 48z m183 -93 c44 -22 70 -57 78 -105 l6 -37 -166 0 -166 0 9
29 c31 110 143 163 239 113z"/>
<path d="M3030 2000 l0 -310 55 0 55 0 0 310 0 310 -55 0 -55 0 0 -310z"/>
<path d="M20 1260 l0 -60 2200 0 2200 0 0 60 0 60 -2200 0 -2200 0 0 -60z"/>
<path d="M337 896 c-117 -42 -182 -159 -156 -284 20 -99 85 -149 259 -201 100
-31 150 -78 150 -143 0 -91 -70 -152 -174 -152 -63 1 -102 15 -164 61 -44 33
-72 27 -97 -20 l-20 -38 30 -25 c65 -53 133 -78 226 -82 106 -5 174 14 231 66
56 51 80 104 86 189 8 132 -42 192 -211 252 -149 52 -192 82 -203 136 -24 130
155 197 289 109 49 -32 67 -28 92 19 l20 37 -30 25 c-73 60 -233 85 -328 51z"/>
<path d="M894 783 c-3 -32 -9 -78 -13 -103 l-6 -45 -53 -8 -53 -9 3 -36 c3
-36 4 -37 50 -40 l47 -3 3 -222 c3 -244 7 -261 69 -293 54 -27 177 -13 225 27
11 9 11 16 -1 39 -20 39 -30 43 -64 25 -40 -20 -74 -19 -94 3 -15 16 -17 47
-17 220 l0 202 85 0 85 0 0 45 0 45 -85 0 -85 0 0 105 0 105 -44 0 -45 0 -7
-57z"/>
<path d="M4037 833 c-3 -5 -11 -52 -17 -105 -12 -96 -13 -98 -39 -98 -59 0
-72 -10 -69 -49 3 -35 5 -36 45 -39 l42 -3 3 -217 c3 -238 8 -260 68 -296 41
-24 143 -21 197 5 49 24 52 33 20 73 -23 28 -24 28 -55 12 -41 -21 -68 -20
-92 4 -19 19 -20 33 -20 220 l0 200 90 0 90 0 0 45 0 45 -90 0 -90 0 0 105 0
105 -39 0 c-22 0 -42 -3 -44 -7z"/>
<path d="M1426 635 c-63 -22 -108 -66 -146 -140 -32 -64 -35 -75 -34 -159 2
-111 27 -186 82 -243 56 -57 103 -77 199 -81 100 -5 176 16 229 62 l36 31 -22
28 c-12 15 -27 27 -33 27 -7 0 -39 -14 -71 -30 -100 -51 -193 -38 -253 35 -30
36 -53 100 -53 144 0 21 5 21 215 21 l215 0 6 24 c14 57 -29 188 -78 233 -63
59 -199 81 -292 48z m183 -93 c44 -22 70 -57 78 -105 l6 -37 -166 0 -166 0 9
29 c31 110 143 163 239 113z"/>
<path d="M3000 641 c-42 -13 -104 -48 -124 -70 -18 -19 -18 -22 -2 -46 21 -32
41 -32 111 5 63 33 119 39 164 16 34 -18 51 -55 58 -123 l6 -53 -64 0 c-124 0
-261 -53 -300 -117 -17 -28 -20 -46 -17 -94 7 -103 63 -149 178 -149 71 0 149
29 185 69 l19 22 11 -38 c10 -36 13 -38 53 -41 l42 -3 0 229 c0 242 -4 272
-48 331 -36 48 -93 71 -177 70 -38 0 -81 -4 -95 -8z m210 -405 c0 -61 -1 -65
-36 -91 -76 -58 -176 -66 -214 -18 -58 74 5 141 151 163 105 15 99 18 99 -54z"/>
<path d="M3676 627 c-21 -13 -51 -43 -67 -66 l-28 -42 -3 58 -3 58 -47 3 -48
3 0 -310 0 -311 55 0 55 0 0 189 c0 104 4 201 9 214 5 14 24 41 41 61 39 43
91 60 149 47 48 -10 56 -4 65 56 5 35 3 44 -13 53 -36 19 -123 12 -165 -13z"/>
<path d="M1852 626 c2 -8 46 -147 98 -310 l95 -296 55 0 55 0 75 225 c41 124
78 225 81 225 3 0 38 -101 78 -225 l72 -225 57 0 57 0 95 296 c52 163 97 302
98 310 3 12 -8 14 -55 12 l-58 -3 -70 -236 -71 -236 -38 126 c-21 69 -55 176
-75 236 l-36 110 -52 3 -52 3 -78 -242 c-43 -133 -79 -234 -81 -223 -8 43
-126 440 -135 452 -14 18 -119 16 -115 -2z"/>
</g>
</svg>
